<svg width="24" height="24" viewBox="0 0 24 24" fill="none" xmlns="http://www.w3.org/2000/svg">
<path opacity="0.1" fill-rule="evenodd" clip-rule="evenodd" d="M0 12C0 5.37258 5.37258 0 12 0C18.6274 0 24 5.37258 24 12C24 18.6274 18.6274 24 12 24C5.37258 24 0 18.6274 0 12Z" fill="white"/>
<path d="M15 6H13.1591C12.3454 6 11.565 6.33582 10.9896 6.9336C10.4142 7.53137 10.0909 8.34212 10.0909 9.1875V11.1H8.25V13.65H10.0909V18.75H12.5455V13.65H14.3864L15 11.1H12.5455V9.1875C12.5455 9.01842 12.6101 8.85627 12.7252 8.73672C12.8403 8.61717 12.9963 8.55 13.1591 8.55H15V6Z" stroke="white" stroke-width="1.5" stroke-linecap="round" stroke-linejoin="round"/>
</svg>
